<svg width="431" height="339" viewBox="0 0 431 339" fill="none" xmlns="http://www.w3.org/2000/svg">
<rect x="82.0594" y="33" width="300.885" height="221.704" rx="43.1892" fill="#4E426D"/>
<path d="M352.411 189.868C355.869 185.489 362.511 185.489 365.969 189.868L406.117 240.714C410.59 246.378 406.555 254.704 399.338 254.704H319.042C311.825 254.704 307.79 246.378 312.263 240.714L352.411 189.868Z" fill="#4E426D"/>
<path d="M60.164 224.42C63.6224 220.04 70.2641 220.04 73.7225 224.42L113.87 275.265C118.343 280.929 114.309 289.256 107.091 289.256H26.7952C19.5779 289.256 15.5433 280.929 20.016 275.265L60.164 224.42Z" fill="#FAC204"/>
<rect x="44.6288" y="67.5514" width="300.885" height="221.704" rx="43.1892" fill="#FAC204"/>
<circle cx="110.852" cy="166.886" r="23.0342" fill="#4E426D"/>
<circle cx="171.317" cy="166.886" r="23.0342" fill="#4E426D"/>
<circle cx="292.247" cy="166.886" r="23.0342" fill="#4E426D"/>
<circle cx="231.782" cy="166.886" r="23.0342" fill="#4E426D"/>
</svg>
